<?xml version="1.0" encoding="UTF-8"?><svg id="Layer_1" xmlns="http://www.w3.org/2000/svg" xmlns:xlink="http://www.w3.org/1999/xlink" viewBox="0 0 313.31 458.22"><defs><style>.cls-1{stroke-width:3px;}.cls-1,.cls-2,.cls-3,.cls-4,.cls-5,.cls-6{stroke:#1d1d1b;stroke-miterlimit:10;}.cls-1,.cls-3,.cls-4,.cls-5,.cls-6,.cls-7{fill:#1d1d1b;}.cls-2{fill:#fff;opacity:0;stroke-width:.25px;}.cls-3{stroke-width:2px;}.cls-4{stroke-width:.5px;}.cls-8{fill:url(#Orange__Yellow);}.cls-5{stroke-width:.75px;}</style><linearGradient id="Orange__Yellow" x1="149.08" y1="366.12" x2="148.42" y2="141.12" gradientTransform="matrix(1, 0, 0, 1, 0, 0)" gradientUnits="userSpaceOnUse"><stop offset="0" stop-color="#ffef26"/><stop offset=".02" stop-color="#fee921"/><stop offset=".1" stop-color="#fdd70e"/><stop offset=".19" stop-color="#fdcb03"/><stop offset=".28" stop-color="#fdc800"/><stop offset=".67" stop-color="#f18f34"/><stop offset=".89" stop-color="#e95f32"/><stop offset="1" stop-color="#e3312d"/></linearGradient></defs><path class="cls-4" d="M214.26,123.2c1.22,.6,1.99,1.85,1.99,3.21v83.09c0,11.39-7.82,20.63-17.5,20.68H98.75c-9.67-.05-17.5-9.29-17.5-20.68V127c0-1.74,.99-3.32,2.55-4.08h0c2.94-1.43,6.36,.7,6.44,3.94,.01,.04,.01,.08,.01,.13v80.29c0,6.79,4.68,12.3,10.45,12.3h96.1c5.78,0,10.45-5.51,10.45-12.3V126.99s0-.09,.01-.13c.06-2.54,2.17-4.39,4.49-4.39,.65,0,1.31,.14,1.95,.45,.19,.09,.38,.18,.56,.28Z"/><path class="cls-4" d="M216.25,300.95v85.07c0,1.72-.98,3.29-2.53,4.05h0c-2.99,1.46-6.47-.72-6.47-4.04v-82.63c0-7.03-4.39-12.73-9.82-12.73H100.07c-5.42,0-9.82,5.7-9.82,12.73v82.66c0,3.31-3.47,5.48-6.45,4.03h0c-1.56-.76-2.55-2.35-2.55-4.09v-85.04c0-12.12,7.59-21.95,16.94-21.95h101.12c9.36,0,16.94,9.83,16.94,21.95Z"/><path class="cls-1" d="M36.25,174v165c-11.01-15-19.1-32.28-23.43-51-.68-2.96-1.27-5.96-1.76-9-1.19-7.32-1.81-14.84-1.81-22.5s.62-15.18,1.81-22.5c.49-3.04,1.08-6.04,1.76-9,4.33-18.72,12.42-36,23.43-51Z"/><path class="cls-1" d="M288.25,256.5c0,7.66-.62,15.18-1.81,22.5-.49,3.04-1.08,6.04-1.76,9-4.33,18.72-12.42,36-23.43,51V174c11.01,15,19.1,32.28,23.43,51,.68,2.96,1.27,5.96,1.76,9,1.19,7.32,1.81,14.84,1.81,22.5Z"/><path class="cls-7" d="M72.55,373.36c-14.07-9.19-26.38-20.85-36.3-34.36v-33.27c0,27.21,13.56,52.73,36.3,67.63Z"/><path class="cls-3" d="M77.96,136.27c-26.02,15.44-41.71,43.71-41.71,73.98v-36.25c11.18-15.22,25.37-28.08,41.71-37.73Z"/><path class="cls-3" d="M81.25,134.39v2.73c0-1.15-1.17-1.9-2.19-1.48,.73-.43,1.46-.84,2.19-1.25Z"/><path class="cls-5" d="M81.25,375.88v2.73c-.73-.41-1.46-.82-2.19-1.25,1.02,.42,2.19-.33,2.19-1.48Z"/><path class="cls-6" d="M218.44,377.36c-.73,.43-1.46,.84-2.19,1.25v-2.73c0,1.15,1.17,1.9,2.19,1.48Z"/><path class="cls-6" d="M218.44,135.64c-1.02-.42-2.19,.33-2.19,1.48v-2.73c.73,.41,1.46,.82,2.19,1.25Z"/><path class="cls-7" d="M261.25,174v33.27c0-27.21-13.56-52.73-36.3-67.63,14.07,9.19,26.38,20.85,36.3,34.36Z"/><path class="cls-7" d="M261.25,305.73v33.27c-9.92,13.51-22.23,25.17-36.3,34.36,22.74-14.9,36.3-40.42,36.3-67.63Z"/><path class="cls-4" d="M90.25,386.02c0,2.6-2.14,4.51-4.5,4.51-.65,0-1.31-.14-1.95-.45-.86-.42-1.71-.85-2.55-1.28-17.22-8.8-32.5-20.86-45-35.38-15.89-18.42-27.33-40.78-32.65-65.42-.64-2.96-1.19-5.97-1.66-9-1.11-7.34-1.69-14.85-1.69-22.5s.58-15.16,1.69-22.5c.47-3.03,1.02-6.04,1.66-9,5.32-24.64,16.76-47,32.65-65.42,12.5-14.52,27.78-26.58,45-35.38,.84-.43,1.69-.86,2.55-1.28,2.94-1.43,6.36,.7,6.44,3.94,.01,.04,.01,.08,.01,.13,0,.86-.24,1.67-.68,2.37-.43,.7-1.06,1.28-1.82,1.66-2.2,1.07-4.37,2.19-6.5,3.37-.73,.41-1.46,.82-2.19,1.25-.06,.03-.13,.06-.19,.1-.17,.1-.35,.2-.52,.3-.13,.08-.26,.15-.39,.23-16.34,9.65-30.53,22.51-41.71,37.73-11.01,15-19.1,32.28-23.43,51-.68,2.96-1.27,5.96-1.76,9-1.19,7.32-1.81,14.84-1.81,22.5s.62,15.18,1.81,22.5c.49,3.04,1.08,6.04,1.76,9,4.33,18.72,12.42,36,23.43,51,9.92,13.51,22.23,25.17,36.3,34.36,.07,.06,.15,.11,.23,.16,.5,.32,1,.65,1.51,.96,.36,.24,.73,.47,1.1,.69,1.15,.71,2.31,1.41,3.48,2.09,.06,.04,.13,.07,.19,.1,.73,.43,1.46,.84,2.19,1.25,2.13,1.18,4.3,2.3,6.5,3.37,1.53,.75,2.5,2.33,2.5,4.04Z"/><path class="cls-4" d="M297.25,256.5c0,7.65-.58,15.16-1.69,22.5-.47,3.03-1.02,6.04-1.66,9-5.32,24.64-16.76,47-32.65,65.42-12.5,14.52-27.78,26.58-45,35.38-.76,.39-1.54,.78-2.32,1.17-3.11,1.53-6.3-.02-6.66-3.47-.11-1.03,.13-2.03,.66-2.86,.43-.7,1.06-1.28,1.82-1.66,2.2-1.07,4.37-2.19,6.5-3.37,.73-.41,1.46-.82,2.19-1.25,.06-.03,.13-.06,.19-.1,1.17-.68,2.33-1.38,3.48-2.09,.37-.22,.74-.45,1.1-.69,.51-.31,1.01-.64,1.51-.96,.08-.05,.16-.1,.23-.16,14.07-9.19,26.38-20.85,36.3-34.36,11.01-15,19.1-32.28,23.43-51,.68-2.96,1.27-5.96,1.76-9,1.19-7.32,1.81-14.84,1.81-22.5s-.62-15.18-1.81-22.5c-.49-3.04-1.08-6.04-1.76-9-4.33-18.72-12.42-36-23.43-51-9.92-13.51-22.23-25.17-36.3-34.36-.07-.06-.15-.11-.23-.16-.5-.32-1-.65-1.51-.96-.36-.24-.73-.47-1.1-.69-1.15-.71-2.31-1.41-3.48-2.09-.06-.04-.13-.07-.19-.1-.73-.43-1.46-.84-2.19-1.25-2.13-1.18-4.3-2.3-6.5-3.37-1.53-.75-2.5-2.32-2.5-4.03,0-.05,0-.09,.01-.13,.06-2.54,2.17-4.39,4.49-4.39,.65,0,1.31,.14,1.95,.45,.86,.42,1.71,.85,2.55,1.28,17.22,8.8,32.5,20.86,45,35.38,15.89,18.42,27.33,40.78,32.65,65.42,.64,2.96,1.19,5.97,1.66,9,1.11,7.34,1.69,14.85,1.69,22.5Z"/><path class="cls-8" d="M261.25,207.27v98.46c0,27.21-13.56,52.73-36.3,67.63-.07,.06-.15,.11-.23,.16-.5,.32-1,.65-1.51,.96-.36,.24-.73,.47-1.1,.69-1.15,.71-2.31,1.41-3.48,2.09-.06,.04-.13,.07-.19,.1-1.02,.42-2.19-.33-2.19-1.48v-75.47c0-11.82-9.58-21.41-21.41-21.41H102.66c-11.82,0-21.41,9.58-21.41,21.41v75.47c0,1.15-1.17,1.9-2.19,1.48-.06-.03-.13-.06-.19-.1-1.17-.68-2.33-1.38-3.48-2.09-.37-.22-.74-.45-1.1-.69-.51-.31-1.01-.64-1.51-.96-.08-.05-.16-.1-.23-.16-22.74-14.9-36.3-40.42-36.3-67.63v-95.48c0-30.27,15.69-58.54,41.71-73.98,.13-.08,.26-.15,.39-.23,.17-.1,.35-.2,.52-.3,.06-.04,.13-.07,.19-.1,1.02-.42,2.19,.33,2.19,1.48v73.82c0,10.62,8.61,19.23,19.23,19.23h96.54c10.62,0,19.23-8.61,19.23-19.23v-73.82c0-1.15,1.17-1.9,2.19-1.48,.06,.03,.13,.06,.19,.1,1.17,.68,2.33,1.38,3.48,2.09,.37,.22,.74,.45,1.1,.69,.51,.31,1.01,.64,1.51,.96,.08,.05,.16,.1,.23,.16,22.74,14.9,36.3,40.42,36.3,67.63Z"/><rect id="button" class="cls-7" x="135.25" y="81" width="27" height="90" rx="13.5" ry="13.5"/><line class="cls-2" x1="148.75" y1="171" x2="213.81" y2="126"/></svg>